<svg width="32" height="32" viewBox="0 0 32 32" fill="none" xmlns="http://www.w3.org/2000/svg">
<path d="M0.93934 28.9393C0.353553 29.5251 0.353553 30.4749 0.93934 31.0607C1.52513 31.6464 2.47487 31.6464 3.06066 31.0607L0.93934 28.9393ZM17.0607 17.0607C17.6464 16.4749 17.6464 15.5251 17.0607 14.9393C16.4749 14.3536 15.5251 14.3536 14.9393 14.9393L17.0607 17.0607ZM14.9393 14.9393C14.3536 15.5251 14.3536 16.4749 14.9393 17.0607C15.5251 17.6464 16.4749 17.6464 17.0607 17.0607L14.9393 14.9393ZM31.0607 3.06066C31.6464 2.47487 31.6464 1.52513 31.0607 0.93934C30.4749 0.353553 29.5251 0.353553 28.9393 0.93934L31.0607 3.06066ZM17.0607 14.9393C16.4749 14.3536 15.5251 14.3536 14.9393 14.9393C14.3536 15.5251 14.3536 16.4749 14.9393 17.0607L17.0607 14.9393ZM28.9393 31.0607C29.5251 31.6464 30.4749 31.6464 31.0607 31.0607C31.6464 30.4749 31.6464 29.5251 31.0607 28.9393L28.9393 31.0607ZM14.9393 17.0607C15.5251 17.6464 16.4749 17.6464 17.0607 17.0607C17.6464 16.4749 17.6464 15.5251 17.0607 14.9393L14.9393 17.0607ZM3.06066 0.93934C2.47487 0.353553 1.52513 0.353553 0.93934 0.93934C0.353553 1.52513 0.353553 2.47487 0.93934 3.06066L3.06066 0.93934ZM3.06066 31.0607L17.0607 17.0607L14.9393 14.9393L0.93934 28.9393L3.06066 31.0607ZM17.0607 17.0607L31.0607 3.06066L28.9393 0.93934L14.9393 14.9393L17.0607 17.0607ZM14.9393 17.0607L28.9393 31.0607L31.0607 28.9393L17.0607 14.9393L14.9393 17.0607ZM17.0607 14.9393L3.06066 0.93934L0.93934 3.06066L14.9393 17.0607L17.0607 14.9393Z" fill="#F74D3B"/>
</svg>
