<svg width="48" height="48" viewBox="0 0 48 48" fill="none" xmlns="http://www.w3.org/2000/svg">
<mask id="path-1-inside-1_1799_16692" fill="white">
<path d="M6 12V36V39.9958C6 41.6446 7.88309 42.5852 9.20135 41.5948L16.1141 36.401C16.4606 36.1407 16.8822 36 17.3155 36H36C39.3137 36 42 33.3137 42 30V12C42 8.68629 39.3137 6 36 6H12C8.68629 6 6 8.68629 6 12Z"/>
</mask>
<path d="M16.1141 36.401L14.3121 34.0025L14.3121 34.0025L16.1141 36.401ZM9.20135 41.5948L11.0034 43.9932H11.0034L9.20135 41.5948ZM9 36V12H3V36H9ZM12 9H36V3H12V9ZM39 12V30H45V12H39ZM36 33H17.3155V39H36V33ZM14.3121 34.0025L7.39932 39.1963L11.0034 43.9932L17.9162 38.7995L14.3121 34.0025ZM9 39.9958V36H3V39.9958H9ZM7.39932 39.1963C8.05846 38.7011 9 39.1713 9 39.9958H3C3 44.1179 7.70773 46.4693 11.0034 43.9932L7.39932 39.1963ZM17.3155 33C16.2322 33 15.1782 33.3518 14.3121 34.0025L17.9162 38.7995C17.743 38.9296 17.5322 39 17.3155 39V33ZM39 30C39 31.6569 37.6569 33 36 33V39C40.9706 39 45 34.9706 45 30H39ZM36 9C37.6569 9 39 10.3431 39 12H45C45 7.02944 40.9706 3 36 3V9ZM9 12C9 10.3431 10.3431 9 12 9V3C7.02944 3 3 7.02944 3 12H9Z" fill="#31353C" mask="url(#path-1-inside-1_1799_16692)"/>
<circle cx="16.5" cy="21.25" r="2.25" fill="#00A3FF"/>
<circle cx="24" cy="21.25" r="2.25" fill="#00A3FF"/>
<circle cx="31.5" cy="21.25" r="2.25" fill="#00A3FF"/>
</svg>
