<svg width="48" height="48" viewBox="0 0 48 48" fill="none" xmlns="http://www.w3.org/2000/svg">
<rect x="7.5" y="6.5" width="33" height="35" rx="4.5" stroke="#31353C" stroke-width="3"/>
<path d="M24.1493 15C25.2836 15 26.2985 15.2293 27.194 15.6306C28.0299 16.0318 28.7463 16.6051 29.2836 17.3503C29.7612 18.0955 30 18.8981 30 19.758C30 20.4459 29.8806 21.0191 29.5821 21.535C29.3433 22.0509 28.9851 22.5096 28.6269 22.8535C28.2687 23.1975 27.5522 23.828 26.597 24.6879C26.2985 24.9172 26.1194 25.1465 25.9403 25.3185C25.7612 25.4904 25.6418 25.6624 25.5821 25.8344C25.5225 25.9488 25.4629 26.1204 25.4033 26.2921L25.403 26.293C25.403 26.4076 25.2836 26.6943 25.2239 27.0955C25.0448 27.9554 24.5672 28.3567 23.7911 28.3567C23.3731 28.3567 23.0149 28.242 22.7164 27.9554C22.4179 27.6688 22.2985 27.2675 22.2985 26.7516C22.2985 26.121 22.4179 25.5478 22.597 25.0318C22.8358 24.5733 23.0746 24.1146 23.4328 23.7707C23.7911 23.4267 24.209 22.9682 24.806 22.4522L25.8806 21.4204C26.1194 21.1911 26.2985 20.9618 26.4776 20.6752C26.6567 20.3885 26.7164 20.1019 26.7164 19.758C26.7164 19.1274 26.4776 18.6115 26 18.1529C25.5224 17.7516 24.9254 17.5223 24.1493 17.5223C23.3135 17.5223 22.6567 17.7516 22.2388 18.2102C21.8209 18.6688 21.4627 19.2994 21.1642 20.1592C20.8657 21.0191 20.3881 21.4777 19.6119 21.4777C19.1343 21.4777 18.7761 21.3057 18.4776 21.0191C18.1791 20.6752 18 20.3312 18 19.9873C18 19.2421 18.2388 18.4395 18.7164 17.6943C19.2537 16.8917 19.9104 16.2612 20.8657 15.7452C21.8209 15.2293 22.8955 15 24.1493 15Z" fill="#00A3FF"/>
<path d="M22.5373 29.9618C22.8955 29.6178 23.3135 29.4458 23.8508 29.4458C24.3284 29.4458 24.7463 29.6178 25.0448 29.9618C25.403 30.3057 25.5821 30.707 25.5821 31.2229C25.5821 31.7962 25.403 32.1974 25.0448 32.5414C24.6866 32.828 24.2687 33 23.7911 33C23.3135 33 22.8955 32.828 22.5373 32.5414C22.1791 32.1974 22 31.7962 22 31.2229C22 30.707 22.1791 30.3057 22.5373 29.9618Z" fill="#00A3FF"/>
</svg>
